<?xml version="1.0" standalone="no"?>
<!DOCTYPE svg PUBLIC "-//W3C//DTD SVG 20010904//EN"
 "http://www.w3.org/TR/2001/REC-SVG-20010904/DTD/svg10.dtd">
<svg version="1.0" xmlns="http://www.w3.org/2000/svg"
 width="186.000000pt" height="186.000000pt" viewBox="0 0 186.000000 186.000000"
 preserveAspectRatio="xMidYMid meet">
<metadata>
Created by potrace 1.14, written by Peter Selinger 2001-2017
</metadata>
<g transform="translate(0.000000,186.000000) scale(0.100000,-0.100000)"
fill="#000000" stroke="none">
<path d="M1143 1557 c-18 -10 -46 -34 -163 -137 -10 -8 -50 -44 -90 -80 -40
-36 -81 -72 -90 -80 -65 -57 -169 -149 -194 -173 -16 -15 -34 -27 -41 -27 -27
0 -93 -60 -109 -99 -30 -76 -15 -202 31 -253 32 -37 98 -60 166 -57 144 5 208
66 210 198 1 112 -32 171 -116 206 -38 16 -39 16 -19 34 11 9 55 48 98 87 101
91 87 79 184 164 47 41 87 77 90 80 31 32 84 70 95 70 14 0 431 -408 423 -414
-1 -2 -23 -8 -48 -15 -86 -23 -131 -86 -135 -185 -6 -149 63 -226 202 -226
116 0 190 44 212 126 12 44 8 146 -7 184 -10 27 -558 577 -595 597 -28 16 -76
16 -104 0z m-440 -608 c36 -44 20 -197 -22 -200 -39 -4 -66 2 -80 16 -19 19
-27 129 -12 168 19 48 80 57 114 16z m969 22 c25 -1 41 -38 44 -100 4 -96 -25
-136 -90 -124 -33 7 -54 49 -51 103 1 19 3 47 4 62 1 32 35 67 59 63 9 -2 25
-4 34 -4z"/>
<path d="M11 1496 c-8 -9 -10 -181 -9 -622 l3 -609 438 -3 437 -2 0 114 c0 91
-3 116 -16 127 -12 10 -77 13 -282 13 l-267 1 0 481 c-1 386 -3 485 -14 498
-18 22 -272 24 -290 2z"/>
<path d="M1024 1056 c-17 -8 -44 -31 -60 -51 -25 -33 -28 -47 -32 -124 -3 -75
0 -92 20 -131 25 -49 64 -76 118 -83 45 -5 110 10 131 29 16 14 17 12 14 -31
-5 -58 -27 -85 -71 -85 -30 0 -74 30 -74 51 0 12 -122 2 -130 -12 -13 -21 34
-82 82 -107 76 -39 199 -34 265 11 61 41 67 67 68 310 1 242 3 234 -66 232
-48 -2 -69 -11 -69 -29 0 -12 -8 -10 -36 9 -42 29 -109 33 -160 11z m168 -113
c28 -30 30 -123 3 -153 -26 -29 -89 -27 -109 2 -18 26 -21 109 -5 139 22 41
78 47 111 12z"/>
</g>
</svg>
